<?xml version="1.0" encoding="UTF-8" standalone="no"?>
<svg
   width="32"
   height="64"
   version="1"
   id="svg4"
   sodipodi:docname="checkmarks.svg"
   inkscape:version="1.4 (e7c3feb100, 2024-10-09)"
   xmlns:inkscape="http://www.inkscape.org/namespaces/inkscape"
   xmlns:sodipodi="http://sodipodi.sourceforge.net/DTD/sodipodi-0.dtd"
   xmlns="http://www.w3.org/2000/svg"
   xmlns:svg="http://www.w3.org/2000/svg">
  <sodipodi:namedview
     id="namedview4"
     pagecolor="#505050"
     bordercolor="#ffffff"
     borderopacity="1"
     inkscape:showpageshadow="0"
     inkscape:pageopacity="0"
     inkscape:pagecheckerboard="1"
     inkscape:deskcolor="#505050"
     inkscape:zoom="24.0625"
     inkscape:cx="18.015584"
     inkscape:cy="48.581818"
     inkscape:window-width="1920"
     inkscape:window-height="1010"
     inkscape:window-x="0"
     inkscape:window-y="0"
     inkscape:window-maximized="1"
     inkscape:current-layer="checkbox" />
  <defs
     id="nova">
    <style
       id="current-color-scheme"
       type="text/css">
   .ColorScheme-Background {color:#181818; } .ColorScheme-ButtonBackground { color:#343434; } .ColorScheme-Highlight { color:#4285f4; } .ColorScheme-Text { color:#dfdfdf; } .ColorScheme-ViewBackground { color:#242424; } .ColorScheme-NegativeText { color:#f44336; } .ColorScheme-PositiveText { color:#4caf50; } .ColorScheme-NeutralText { color:#ff9800; }
  </style>
  </defs>
  <g
     id="radiobutton"
     transform="translate(0,8)">
    <rect
       style="opacity:0.001"
       width="32"
       height="32"
       x="0"
       y="-8"
       id="rect1" />
    <path
       style="fill:currentColor"
       class="ColorScheme-Highlight"
       transform="translate(0,-8)"
       d="M 16,3 C 8.839535,3 3.000008,8.839535 3,16 c 8e-6,7.160465 5.839535,13 13,13 7.160449,0 13,-5.839551 13,-13 C 29,8.839551 23.160449,3 16,3 Z"
       id="path1" />
    <path
       style="fill:currentColor"
       class="ColorScheme-Background"
       transform="translate(0,-8)"
       d="m 16,11 a 5,5 0 0 1 5,5 5,5 0 0 1 -5,5 5,5 0 0 1 -5,-5 5,5 0 0 1 5,-5 z"
       id="path2" />
  </g>
  <g
     id="checkbox"
     transform="translate(0,40)">
    <rect
       style="opacity:0.001"
       width="32"
       height="32"
       x="0"
       y="-8"
       id="rect2" />
    <rect
       style="opacity:1;fill:currentColor;fill-opacity:1;stroke:none;stroke-width:0.48;stroke-linecap:round;paint-order:stroke fill markers"
       id="rect4"
       width="25.974026"
       height="26.015585"
       x="2.9922078"
       y="34.992207"
       ry="7.1896105"
       transform="translate(0,-40)"
       class="ColorScheme-Highlight" />
    <path
       style="fill:currentColor"
       class="ColorScheme-Highlight"
       transform="translate(0,-40)"
       d="M 16,35 A 13,13 0 0 0 3,48 13,13 0 0 0 16,61 13,13 0 0 0 29,48 13,13 0 0 0 16,35 Z"
       id="path3" />
    <path
       style="fill:currentColor"
       class="ColorScheme-Background"
       transform="translate(0,-40)"
       d="m 21.720703,41.003906 c 1.56542,-0.09093 3.142579,1.556171 1.730469,3.246094 L 14.466797,55 8.6796875,50.083984 c -1.807539,-1.534882 0.3183121,-5.167453 2.5253905,-3.58789 l 3.117188,2.228515 5.947265,-6.986328 c 0.40801,-0.479471 0.929372,-0.704067 1.451172,-0.734375 z"
       id="path4" />
  </g>
</svg>
